<svg xmlns="http://www.w3.org/2000/svg" viewBox="0 0 500 500"><g id="freepik--background-simple--inject-361"><path d="M435.27,152.22c-9.85-24.54-26.42-46.95-49.14-60.48-21.52-12.81-47.47-17-72.42-14.81C293.57,78.7,273.52,84.61,256.82,96S227,124.54,222.39,144.24c-4.09,17.66-2.65,39.23-17.14,50.11-10.87,8.17-25.88,6.25-39.45,7.05-33.23,1.94-64.47,24.08-77.31,54.78s-6.66,68.5,15.29,93.52h0a139.88,139.88,0,0,0,69.51,43c47.29,12.54,98.47,11.72,144.41-5.11s86.18-50.07,108.88-93.41S453.49,197.62,435.27,152.22Z" style="fill:#ebebeb"></path></g><g id="freepik--Floor--inject-361"><path d="M458.55,477.1c0,.15-93.38.26-208.54.26s-208.56-.11-208.56-.26,93.36-.26,208.56-.26S458.55,477,458.55,477.1Z" style="fill:#263238"></path></g><g id="freepik--Characters--inject-361"><path d="M147.26,81.67s-3-5.17-1.8-5.85,5.65-.47,7.3-1.23,3.5-1.5,4.18-.68,11.52,13.6,11.52,13.6l5.21,5.18-7.94,4.4S154,92.93,152.1,92.24c-1.47-.54-6.87-6.69-9-9.22a1.72,1.72,0,0,1,.31-2.58C144.2,79.9,145.48,79.83,147.26,81.67Z" style="fill:#ffbe9d"></path><path d="M145.22,80.24a4.27,4.27,0,0,1,1.45.88A15,15,0,0,0,150,83.27a15.9,15.9,0,0,1,2.12.68,7.94,7.94,0,0,1,1.59,1c.84.65,1.23,1.17,1.19,1.22a13.76,13.76,0,0,0-5.09-2.38,11.37,11.37,0,0,1-3.35-2.35C145.67,80.71,145.18,80.3,145.22,80.24Z" style="fill:#eb996e"></path><path d="M147.24,81.42a1.32,1.32,0,0,0,1-.15A2.33,2.33,0,0,0,149,79l-.18-.9.6.71A4.23,4.23,0,0,0,151.33,80a4,4,0,0,0,1.95.14l.83-.15-.62.58c-.29.27-.25,1-.25,1.44a6.53,6.53,0,0,1-.07,1.37,1.47,1.47,0,0,1-.39.85c-.17.14-.29.17-.3.15a1.86,1.86,0,0,0,.39-1,10.47,10.47,0,0,0,0-1.32,7.32,7.32,0,0,1,0-.84,1.39,1.39,0,0,1,.38-1l.2.43a4.41,4.41,0,0,1-2.21-.12,4.46,4.46,0,0,1-2.12-1.45l.42-.19a2.56,2.56,0,0,1-1.11,2.66,1.14,1.14,0,0,1-.87.07C147.3,81.53,147.23,81.44,147.24,81.42Z" style="fill:#eb996e"></path><path d="M157.6,78.07a6.37,6.37,0,0,1-2.54-2.54,3,3,0,0,0-.21-.26.6.6,0,0,0-.2-.14,1.75,1.75,0,0,0-.57-.11L153,75c-.64,0-1-.09-1-.16s.4-.15,1-.21c.32,0,.69-.07,1.14-.08a2.06,2.06,0,0,1,.75.12,1.14,1.14,0,0,1,.38.25,2.51,2.51,0,0,1,.26.31C156.53,76.89,157.7,78,157.6,78.07Z" style="fill:#eb996e"></path><path d="M305.56,164.51,317,195.29l19.5,18.21.71,5.58-29,12-32-42.35-35.09-18.06-.44-10.08,7.56-9.7,4-3.42,24.77-1.64,13.93,4C299.48,151.73,303.81,160.77,305.56,164.51Z" style="fill:#A3E635"></path><polygon points="252.67 147.26 212 115.81 170.27 87.94 162.32 98.65 247.12 170.26 247.12 170.26 252.67 147.26" style="fill:#A3E635"></polygon><path d="M316.58,195.42a19.57,19.57,0,0,1-1,3.13,44.92,44.92,0,0,1-3.19,7.24,23,23,0,0,1-4.94,6.19,14.86,14.86,0,0,1-1.94,1.42,2.47,2.47,0,0,1-.79.4c-.05-.08,1-.72,2.48-2.1a25.73,25.73,0,0,0,4.74-6.17,60.7,60.7,0,0,0,3.3-7.11A22.07,22.07,0,0,1,316.58,195.42Z" style="fill:#263238"></path><path d="M315.2,196a8.12,8.12,0,0,1-1,2,15.35,15.35,0,0,1-3.41,4.18,50.81,50.81,0,0,1-4.28,3.25,11.86,11.86,0,0,1-1.84,1.23,7.9,7.9,0,0,1,1.62-1.53c1.06-.87,2.6-2,4.16-3.34a19,19,0,0,0,3.44-4A12.05,12.05,0,0,1,315.2,196Z" style="fill:#263238"></path><path d="M242.25,159.17a5.51,5.51,0,0,1-.12-1.9,16.9,16.9,0,0,1,.73-4.54,11.77,11.77,0,0,1,2.16-4.07,4.2,4.2,0,0,1,1.42-1.27c.06.06-.47.56-1.13,1.49a14.25,14.25,0,0,0-2,4C242.35,156.25,242.44,159.19,242.25,159.17Z" style="fill:#263238"></path><path d="M243.47,167.43a10.61,10.61,0,0,1-.19-2.74,32.32,32.32,0,0,1,2.83-12.9,10.27,10.27,0,0,1,1.33-2.41,25.68,25.68,0,0,1-1,2.55,41.13,41.13,0,0,0-2.8,12.77A19.6,19.6,0,0,1,243.47,167.43Z" style="fill:#263238"></path><g style="opacity:0.30000000000000004"><path d="M315.84,197.89l-3.9,8.33a14.6,14.6,0,0,1-1.39,2.51c-.79,1.06-1.86,1.88-2.63,3a7.41,7.41,0,0,0,7.78-4.43,12.11,12.11,0,0,0,.64-4.64,35.3,35.3,0,0,0-.37-4.47,1.19,1.19,0,0,0-.48-1"></path></g><path d="M312.86,186a4.88,4.88,0,0,1-.65.9,10.73,10.73,0,0,1-.86,1c-.35.36-.73.8-1.22,1.22a26.05,26.05,0,0,1-3.52,2.79,28.66,28.66,0,0,1-10.1,4.25,27.81,27.81,0,0,1-4.46.55c-.64.05-1.22,0-1.72,0a11.28,11.28,0,0,1-1.3-.08,5.09,5.09,0,0,1-1.1-.16c0-.1,1.58,0,4.1-.14a32.27,32.27,0,0,0,4.38-.66,33.27,33.27,0,0,0,5.16-1.65,33.93,33.93,0,0,0,4.78-2.53,31.27,31.27,0,0,0,3.54-2.66C311.79,187.16,312.78,185.94,312.86,186Z" style="fill:#fafafa"></path><path d="M327.57,206.49a3.06,3.06,0,0,1-.39.89,17,17,0,0,1-1.46,2.2,24.93,24.93,0,0,1-6.54,5.71,48.7,48.7,0,0,1-7.81,3.81c-1,.41-1.87.72-2.45.92a4.08,4.08,0,0,1-.93.27,27,27,0,0,1,3.24-1.53,61.52,61.52,0,0,0,7.67-3.91,27.28,27.28,0,0,0,6.53-5.5C326.85,207.67,327.49,206.45,327.57,206.49Z" style="fill:#fafafa"></path><path d="M305.68,167.63a5.12,5.12,0,0,1-1.87,2.31,5.25,5.25,0,0,1-2.64,1.35,24.55,24.55,0,0,1,2.32-1.75A25.74,25.74,0,0,1,305.68,167.63Z" style="fill:#fafafa"></path><path d="M286.07,154.47c-.05.14-2.11-.59-4.75-1s-4.83-.46-4.83-.62a16.52,16.52,0,0,1,9.58,1.66Z" style="fill:#fafafa"></path><path d="M251.66,151.3c-.13.08-.7-.72-1.76-1.15a15.27,15.27,0,0,0-2.06-.45c-.07-.13,1-.56,2.26,0S251.8,151.26,251.66,151.3Z" style="fill:#fafafa"></path><path d="M265.81,173a3.81,3.81,0,0,1-1,0c-.62,0-1.52-.14-2.62-.32a38.1,38.1,0,0,1-8.39-2.4A39,39,0,0,1,246.2,166c-.9-.66-1.61-1.22-2.07-1.64a3.6,3.6,0,0,1-.7-.68c.06-.07,1.14.79,3,2a46.81,46.81,0,0,0,7.62,4.06,46,46,0,0,0,8.25,2.52C264.45,172.74,265.82,172.9,265.81,173Z" style="fill:#fafafa"></path><path d="M186.22,98.6c.1.12-2.59,2.25-5.31,5.44s-4.42,6.17-4.56,6.09a7.56,7.56,0,0,1,1-2,32,32,0,0,1,7-8.22A7.85,7.85,0,0,1,186.22,98.6Z" style="fill:#fafafa"></path><path d="M173.22,90.65c.1.13-2.13,2-4.61,4.56s-4.27,4.86-4.39,4.77a23.24,23.24,0,0,1,4-5.13A23.5,23.5,0,0,1,173.22,90.65Z" style="fill:#fafafa"></path><path d="M201.6,109.07a11.13,11.13,0,0,1-1.64,2,44.76,44.76,0,0,1-4.59,4.34,46,46,0,0,1-5.16,3.67,11.58,11.58,0,0,1-2.32,1.21,16.35,16.35,0,0,1,2.12-1.52c1.33-.91,3.13-2.2,5-3.76s3.51-3.07,4.66-4.19A15.2,15.2,0,0,1,201.6,109.07Z" style="fill:#fafafa"></path><g style="opacity:0.30000000000000004"><path d="M243.14,144.09a7.2,7.2,0,0,1,3.05,5.17,11.8,11.8,0,0,1-1,6.05,20.62,20.62,0,0,0-1.45,3.72,6.63,6.63,0,0,0,4.38,7.39,27.5,27.5,0,0,0,3.14.56,24.12,24.12,0,0,1,5.94,2.24l5,2.39a3.33,3.33,0,0,1,1.69,1.34,2.26,2.26,0,0,1-.62,2.53c-.67.65-1.4,4.81-2.27,5.13,0,0-3.76-1.61-7.23-3.37-1.43-.73-6-3-7.27-3.8-1.56-1-2.35.68-3.85-.41a12.89,12.89,0,0,1-3.45-3.25,12,12,0,0,1-1.39-3.44,65.24,65.24,0,0,1-1.83-8.74,11.89,11.89,0,0,1-.08-3.81,9.4,9.4,0,0,1,1.72-3.66c1.63-2.25,3.06-4.85,5.58-6"></path></g><g style="opacity:0.30000000000000004"><path d="M296.21,206.43c.32.15.22-.09.43-.38,1.1-1.47.56-3.55-.12-5.26a50.55,50.55,0,0,0-2.29-5c-1-1.87-2.13-3.94-1.58-6,.4-1.45,1.58-2.53,2.52-3.72a12.86,12.86,0,0,0,2.78-7.59.81.81,0,0,0-.22-.71c-.33-.24-.77.1-1,.42-4,4.68-13.51,12.05-13.51,12.05s10.84,13.48,7.88,10.12c0,0,4.25,4.8,5.15,6"></path></g><path d="M246.58,92.78c-.63-.85-2-.07-2.48.88s-.66,2.16-1.62,2.61c-1.26.6-3.18-.47-4,.67-.6.88.28,2.07,0,3.1-.45,1.83-3.66,1.39-4.57,3-.54,1,0,2.19.45,3.23s.6,2.49-.37,3.08-2.41-.09-3.21.68c-1.07,1,.53,2.78.2,4.22-.24,1-1.44,1.57-2.5,1.8s-2.27.4-3,1.22c-1.57,1.82.72,4.64.08,6.94-.39,1.39-1.85,2.57-1.51,4,.44,1.8,3.4,2,3.82,3.84.35,1.53-1.4,3.27-.44,4.51s3.06.08,4.4.83c1.56.87,1.26,3.73,3,4.15.77.19,1.57-.27,2.36-.16,1.91.28,2.42,3.54,4.35,3.42,1.13-.08,2-1.4,3.11-1.13s1.24,1.78,2.17,2.37c1.45.92,3.13-1,4.85-1.06,1.07-.05,2.11.64,3.16.45a2.68,2.68,0,0,0,1.93-2.14,9.29,9.29,0,0,0-.07-3,29.43,29.43,0,0,1,2.81-16.23" style="fill:#263238"></path><path d="M252.54,152l-.34-8.38s-8.76-1.28-10.78-12.51c-1-5.58-.89-14.77-.53-22.28.39-8.29,9.5-17,16.33-16.41l20.24,7.13v3.64l-.6,48.47c.09,2.46-6.84,9.19-13.63,9.19h0C259,161.29,252.42,158.79,252.54,152Z" style="fill:#ffbe9d"></path><path d="M243.26,116c.19.19,1.28-.64,2.86-.67s2.74.74,2.91.54-.11-.42-.62-.77a4.07,4.07,0,0,0-2.34-.67,4,4,0,0,0-2.26.77C243.33,115.6,243.17,115.94,243.26,116Z" style="fill:#263238"></path><path d="M258.2,115.62c.18.18,1.28-.65,2.85-.67s2.74.73,2.91.54-.11-.42-.62-.77a4,4,0,0,0-2.33-.67,3.84,3.84,0,0,0-2.27.77C258.27,115.19,258.11,115.53,258.2,115.62Z" style="fill:#263238"></path><path d="M253,125.16a10.32,10.32,0,0,0-2.56-.41c-.41,0-.79-.1-.86-.37a2,2,0,0,1,.25-1.18l1.13-3c1.57-4.33,2.7-7.88,2.53-8s-1.6,3.4-3.17,7.73c-.38,1.07-.74,2.09-1.09,3.06a2.33,2.33,0,0,0-.18,1.56,1,1,0,0,0,.67.57,2.57,2.57,0,0,0,.69.08A10.11,10.11,0,0,0,253,125.16Z" style="fill:#263238"></path><path d="M252.2,143.57a29.36,29.36,0,0,0,15.2-4.29s-3.82,7.86-15.25,7Z" style="fill:#eb996e"></path><path d="M253.69,128.89a2.88,2.88,0,0,1,2.53-1.08,2.56,2.56,0,0,1,1.8.92,1.58,1.58,0,0,1,.16,1.84,1.94,1.94,0,0,1-2.06.56,6.12,6.12,0,0,1-2-1.15,1.83,1.83,0,0,1-.46-.46.51.51,0,0,1,0-.57" style="fill:#eb996e"></path><path d="M257.61,126.16c-.26,0-.23,1.67-1.67,2.89s-3.26,1.07-3.27,1.31.41.32,1.18.33a4.3,4.3,0,0,0,2.73-1,3.6,3.6,0,0,0,1.29-2.43C257.93,126.56,257.73,126.14,257.61,126.16Z" style="fill:#263238"></path><path d="M258,107.46c.16.42,1.73.19,3.58.38s3.35.66,3.59.27c.11-.18-.16-.57-.77-1a6,6,0,0,0-2.67-.87,6.07,6.07,0,0,0-2.79.37C258.21,106.92,257.88,107.26,258,107.46Z" style="fill:#263238"></path><path d="M243.49,109c.28.34,1.36,0,2.66-.08s2.41.19,2.66-.18c.11-.18-.07-.53-.56-.86a3.89,3.89,0,0,0-4.29.21C243.51,108.48,243.36,108.85,243.49,109Z" style="fill:#263238"></path><path d="M247.11,94.51c0,.13.39.23.88.23s.87-.1.87-.23-.39-.24-.87-.24S247.11,94.38,247.11,94.51Z" style="fill:#263238"></path><path d="M247.85,96.68c-2.93-5.76,3.75-10.58,6.93-12.15a11,11,0,0,1,10.26.11c1.4.82,2.62,2,4.19,2.4,3.64.91,7.57-2.76,10.95-1.16,2.78,1.31,3.25,5.43,6.05,6.72,1.34.62,2.91.43,4.39.58s3.15.95,3.34,2.41c.21,1.62-1.52,3.33-.65,4.72,1.07,1.7,4.25.11,5.63,1.6s-.23,4.18,1.33,5.25c1.15.78,3.09-.16,3.93.93s-.78,2.64-.95,4.09,1.26,2.65,2.48,3.57,2.5,2.35,1.92,3.75c-.68,1.61-3.36,1.75-3.82,3.44s1.89,3.64.83,5.1c-.71,1-2.33.7-3.23,1.5-1.51,1.33.31,3.89-.42,5.74-1,2.56-5.47,1.44-7.17,3.61-.95,1.21-.82,3.2-2.16,4s-3.09-.44-4.67-.26c-2.57.3-4.15,4.16-6.63,3.41-1.27-.39-2.2-2-3.49-1.65-1.11.27-1.54,1.84-2.67,2-1.53.24-2-2-2.87-3.2-1.22-1.64-3.89-1.73-5-3.44-1-1.53-.28-3.57.61-5.18s2-3.36,1.53-5.14c-.5-2-2.87-3.78-2-5.7.91-2.1,4.88-1.88,5.16-4.15s-3.38-3.35-3-5.46c.28-1.42,2.25-2,2.62-3.38.43-1.63-1.57-3-1.54-4.7,0-1.07.85-1.94,1.44-2.84s.92-2.25.08-2.94c-1.32-1.11-3.31.91-5,.42-1.17-.34-1.59-1.7-2-2.83,0,0-3.08-4.61-8.58-3.94S247.85,96.68,247.85,96.68Z" style="fill:#263238"></path><path d="M247.77,94.6a2.41,2.41,0,0,0,.89,3.79c1.37.48,2.81-.38,4-1.17s2.71-1.6,4.05-1c2.45,1,1.76,5.41,4.24,6.37a5.7,5.7,0,0,0,3.23-.22c1.07-.23,2.4-.2,3,.71.8,1.21-.28,3.16.8,4.15.45.41,1.14.49,1.55.94.65.73.14,1.91-.59,2.57s-1.66,1.19-2,2.1c-.56,1.45.67,3,1.93,3.88s2.76,1.88,3,3.41c.44,2.46-2.65,4.83-1.6,7.11a3,3,0,0,0,3.68,1.23,6.06,6.06,0,0,0,3-2.9c2.83-5.06,2-11.27,1.09-17-.62-3.74-1.35-7.6-3.56-10.7s-6-5.22-9.72-6.52a20.17,20.17,0,0,0-9-1.26,10.52,10.52,0,0,0-7.63,4.39" style="fill:#263238"></path><path d="M232.77,136.39a.89.89,0,0,1-.48.19,1.41,1.41,0,0,1-1.2-.76,4.21,4.21,0,0,1-.05-2.37,3.7,3.7,0,0,0-.21-1.55,13.34,13.34,0,0,1-.52-1.62,1.56,1.56,0,0,1,.47-1.57,4.66,4.66,0,0,1,1.8-.82,4.33,4.33,0,0,0,2.06-1,1.5,1.5,0,0,0,.33-1.22,2.38,2.38,0,0,0-.61-1.11c-.55-.61-1.27-1.09-1.54-1.8a1.54,1.54,0,0,1,1-1.82c.71-.41,1.63-.48,2.5-.87a2.55,2.55,0,0,0,1.14-.9,2.37,2.37,0,0,0,.41-1.41,6,6,0,0,0-.78-2.68,7.88,7.88,0,0,1-.89-2.4,2.56,2.56,0,0,1,.77-2.16c.56-.58,1.26-1,1.86-1.59a4.11,4.11,0,0,0,1.26-2,8.23,8.23,0,0,0,.2-2.23,11.06,11.06,0,0,1,.28-3.85,6.17,6.17,0,0,1,1.77-2.62A6.56,6.56,0,0,1,244.4,97a8.38,8.38,0,0,1,2-.42,3.33,3.33,0,0,0-.55,0,5.68,5.68,0,0,0-1.55.29A6.51,6.51,0,0,0,242.17,98a6.38,6.38,0,0,0-1.89,2.69,10.85,10.85,0,0,0-.34,4,7.72,7.72,0,0,1-.22,2.13,3.67,3.67,0,0,1-1.17,1.86c-.57.53-1.27,1-1.88,1.6a3,3,0,0,0-.89,2.48c.23,1.84,1.68,3.25,1.67,5a2.07,2.07,0,0,1-.34,1.18,2.29,2.29,0,0,1-1,.76c-.78.36-1.71.43-2.53.89a2.61,2.61,0,0,0-1,.92,1.59,1.59,0,0,0-.13,1.39,7,7,0,0,0,1.62,1.92,1.9,1.9,0,0,1,.53.91,1.11,1.11,0,0,1-.24.92,4,4,0,0,1-1.88.9,5.16,5.16,0,0,0-1.92.91,1.84,1.84,0,0,0-.54.89,2,2,0,0,0,0,1,13.05,13.05,0,0,0,.56,1.64,3.47,3.47,0,0,1,.22,1.46,4.32,4.32,0,0,0,.15,2.46,1.49,1.49,0,0,0,1.35.77C232.69,136.61,232.78,136.38,232.77,136.39Z" style="fill:#455a64"></path><path d="M309.19,108.89a3.37,3.37,0,0,1-.24.54,5.9,5.9,0,0,1-1,1.37,6.84,6.84,0,0,1-2.31,1.5,7.24,7.24,0,0,1-3.69.49,5.89,5.89,0,0,1-2.11-.67,1.54,1.54,0,0,1-.9-.87,1.62,1.62,0,0,1,.28-1.29c.5-.74,1.18-1.25,1.72-1.94a10.35,10.35,0,0,0,1.49-2.25,4.37,4.37,0,0,0,.41-2.71,3.79,3.79,0,0,0-1.65-2.33,6.27,6.27,0,0,0-2.94-1,19.65,19.65,0,0,0-3.33.07l-.32,0,.06-.31a18.08,18.08,0,0,0,.59-4.7,5.56,5.56,0,0,0-2-4.2,3.45,3.45,0,0,0-2.23-.78,18.28,18.28,0,0,1-2.65.3,2,2,0,0,1-1.31-.71,4.25,4.25,0,0,1-.65-1.27,7.79,7.79,0,0,0-1.15-2.35A7.09,7.09,0,0,0,281,83.08a7.26,7.26,0,0,0-4.82.63c-.72.36-1.34.92-2.08,1.36a3.68,3.68,0,0,1-2.5.56,12.24,12.24,0,0,1-4.33-2.11A12.54,12.54,0,0,0,259,81.8a14,14,0,0,0-6.89,2.83,15.82,15.82,0,0,0-4,4.73,18.09,18.09,0,0,0-1.75,4.38,20.4,20.4,0,0,0-.53,3l-.07.78a.72.72,0,0,1,0,.27,14.8,14.8,0,0,1,.44-4,18.43,18.43,0,0,1,1.69-4.47,15.93,15.93,0,0,1,4.05-4.88,14.32,14.32,0,0,1,7.06-3,13,13,0,0,1,8.59,1.74c1.32.79,2.62,1.8,4.14,2a3.15,3.15,0,0,0,2.18-.49c.68-.41,1.32-1,2.11-1.38a7.77,7.77,0,0,1,5.16-.69,7.68,7.68,0,0,1,4.48,2.94A8.24,8.24,0,0,1,286.84,88c.27.84.73,1.57,1.54,1.63a21.36,21.36,0,0,0,2.56-.29,3.94,3.94,0,0,1,2.56.88,6.05,6.05,0,0,1,2.2,4.59,18,18,0,0,1-.61,4.82l-.25-.29a20.58,20.58,0,0,1,3.42,0,6.77,6.77,0,0,1,3.14,1.07,4.25,4.25,0,0,1,1.81,2.61,4.62,4.62,0,0,1-.46,3,10.39,10.39,0,0,1-1.57,2.32c-.56.7-1.27,1.25-1.7,1.89a1.29,1.29,0,0,0-.26,1c.08.32.4.52.73.69a5.74,5.74,0,0,0,2,.66,7.14,7.14,0,0,0,3.56-.4,6.92,6.92,0,0,0,2.29-1.41A7.94,7.94,0,0,0,309.19,108.89Z" style="fill:#263238"></path><path d="M220.28,112.09a2.43,2.43,0,0,0-1-.38A1.8,1.8,0,0,0,218,112a2.59,2.59,0,0,0-1,1.4,3.15,3.15,0,0,0,.2,2.11,3,3,0,0,0,1.77,1.67,2.76,2.76,0,0,0,2.62-.63,3,3,0,0,0,1.06-2.77l-.09-.46.42.21a3.54,3.54,0,0,0,2.77.1,3.36,3.36,0,0,0,2-2.12A3.52,3.52,0,0,0,228,110a6.85,6.85,0,0,1-.29-1.75,1.71,1.71,0,0,1,1.43-1.31A4.5,4.5,0,0,1,231,107a2.22,2.22,0,0,0,3-2c.28-1.39-.26-2.81-.22-4.27a3.62,3.62,0,0,1,.61-2.09,3.93,3.93,0,0,1,1.63-1.3,3.74,3.74,0,0,1,3.74.37l-.34.18A7.44,7.44,0,0,1,240.56,93,3.54,3.54,0,0,1,244,91.46,2.77,2.77,0,0,1,246,93a1.48,1.48,0,0,1,.15.86,3.57,3.57,0,0,0-.27-.8A2.65,2.65,0,0,0,244,91.69a3.31,3.31,0,0,0-3.14,1.5,7.2,7.2,0,0,0-1,4.69l0,.47-.37-.3a3.3,3.3,0,0,0-3.29-.27,3.25,3.25,0,0,0-1.42,1.15,3.19,3.19,0,0,0-.52,1.82c0,1.34.53,2.77.24,4.36a3.23,3.23,0,0,1-1.19,2.08,3.15,3.15,0,0,1-2.42.31,4,4,0,0,0-1.67-.06,1.2,1.2,0,0,0-1,.88c-.08.45.23,1,.29,1.61a4.21,4.21,0,0,1-.19,1.77,3.87,3.87,0,0,1-2.32,2.42,4,4,0,0,1-3.14-.15l.33-.25c.4,2.61-2.29,4.58-4.25,3.86a3.41,3.41,0,0,1-2-1.91,3.34,3.34,0,0,1-.16-2.31,2.7,2.7,0,0,1,1.13-1.5,1.91,1.91,0,0,1,2.15,0C220.23,112,220.29,112.08,220.28,112.09Z" style="fill:#263238"></path><path d="M302.33,104.74s0-.17-.18-.45a1.59,1.59,0,0,0-1.13-.72,2.27,2.27,0,0,0-2,.59,8.32,8.32,0,0,0-1.59,2.56,9.48,9.48,0,0,1-2.31,3,8.1,8.1,0,0,1-4,1.93,6.21,6.21,0,0,1-4.83-1.21,6.29,6.29,0,0,1-1.79-2.07,5.24,5.24,0,0,1-.61-2.8l.34.25a6.64,6.64,0,0,1-5.08-.1,6.37,6.37,0,0,1-3.54-4,6.61,6.61,0,0,1,0-3.79l.36.31a9.26,9.26,0,0,1-6.65.67A6.34,6.34,0,0,1,265,94.56c-.13-.5-.14-1-.28-1.39a1.54,1.54,0,0,0-.8-.9,2.94,2.94,0,0,0-2.41,0c-.78.32-1.47.8-2.2,1.15a9.79,9.79,0,0,1-2.2.77,10.9,10.9,0,0,1-6.82-.65,7.29,7.29,0,0,1-2.13-1.34,16.32,16.32,0,0,0,2.2,1.16,11,11,0,0,0,6.67.49,9.68,9.68,0,0,0,2.11-.78c.7-.34,1.38-.83,2.21-1.18a3.34,3.34,0,0,1,2.77-.06,2,2,0,0,1,1,1.14c.17.5.18,1,.3,1.43a5.89,5.89,0,0,0,4,4,8.77,8.77,0,0,0,6.28-.66l.53-.26-.17.57a6,6,0,0,0,0,3.49,5.8,5.8,0,0,0,3.25,3.7,6.18,6.18,0,0,0,4.68.11l.38-.15,0,.4a4.76,4.76,0,0,0,.53,2.53,6.05,6.05,0,0,0,1.65,1.93,5.82,5.82,0,0,0,4.49,1.16,7.76,7.76,0,0,0,3.83-1.8,9.06,9.06,0,0,0,2.28-2.89,8.39,8.39,0,0,1,1.71-2.6,2.41,2.41,0,0,1,2.23-.57,1.65,1.65,0,0,1,1.17.84A1,1,0,0,1,302.33,104.74Z" style="fill:#455a64"></path><path d="M264.16,118c-.15,0-.24-.22-.22-.45s.17-.41.31-.39.24.22.21.45S264.3,118,264.16,118Z" style="fill:#eb996e"></path><path d="M262.52,119.3a.35.35,0,0,1,0-.68c.15,0,.26.15.26.34S262.67,119.3,262.52,119.3Z" style="fill:#eb996e"></path><path d="M259.06,120a.27.27,0,0,1-.2-.33.28.28,0,0,1,.31-.23.28.28,0,0,1,.2.33A.27.27,0,0,1,259.06,120Z" style="fill:#eb996e"></path><path d="M244.61,119.35a.25.25,0,0,1-.38-.08.26.26,0,0,1,.12-.37.26.26,0,0,1,.26.45Z" style="fill:#eb996e"></path><path d="M247.8,118.71a.32.32,0,0,1-.22-.29.3.3,0,0,1,.26-.26.24.24,0,0,1,.26.29A.25.25,0,0,1,247.8,118.71Z" style="fill:#eb996e"></path><path d="M247.11,120.62c-.11.1-.31,0-.39-.15s0-.38.16-.39a.31.31,0,0,1,.32.18A.33.33,0,0,1,247.11,120.62Z" style="fill:#eb996e"></path><path d="M368.37,281.85a131,131,0,0,0-27.89-64.1c-.49-.59-2.83-2.89-2.83-2.89-.91-.37-.82,1.25-1.76,1.49a230.75,230.75,0,0,0-24.79,7.7l-.19,45.71a9.83,9.83,0,0,0,14.19,10.92,11.93,11.93,0,0,1,2.85-1.39c2-.45,3.9.71,5.65,1.73,10,5.79,22.58,8,33.21,3.45a2.63,2.63,0,0,0,1.48-1.16A2.58,2.58,0,0,0,368.37,281.85Z" style="fill:#A3E635"></path><g style="opacity:0.30000000000000004"><path d="M368.37,281.85a131,131,0,0,0-27.89-64.1c-.49-.59-2.83-2.89-2.83-2.89-.91-.37-.82,1.25-1.76,1.49a230.75,230.75,0,0,0-24.79,7.7l-.19,45.71a9.83,9.83,0,0,0,14.19,10.92,11.93,11.93,0,0,1,2.85-1.39c2-.45,3.9.71,5.65,1.73,10,5.79,22.58,8,33.21,3.45a2.63,2.63,0,0,0,1.48-1.16A2.58,2.58,0,0,0,368.37,281.85Z"></path></g><path d="M335,216.22c.45.67,9.46,9.67,9.36,21.06-.12,12.44-4.89,17.88-10.06,22.43C329.39,264,317,269.22,317,269.22l-2.65-28.63-9.53-13.28L335,216.22Z" style="fill:#263238"></path><path d="M304.85,225.59l31.61-12.09a13.83,13.83,0,0,1,3.89,10L309,231.08Z" style="fill:#A3E635"></path><path d="M304.85,225.59l31.61-12.09a13.83,13.83,0,0,1,3.89,10L309,231.08Z" style="opacity:0.30000000000000004"></path><path d="M342.22,219.77a14.2,14.2,0,0,0-3.83-.2,37.55,37.55,0,0,0-4.14.71c-1.55.33-3.25.73-5,1.19-3.54.92-6.7,1.95-9,2.73s-3.65,1.32-3.68,1.25a4.16,4.16,0,0,1,.92-.49c.62-.28,1.51-.66,2.64-1.1a79.72,79.72,0,0,1,9-2.89c1.78-.47,3.49-.85,5.06-1.16a30,30,0,0,1,4.2-.6,10.06,10.06,0,0,1,2.87.21A2.6,2.6,0,0,1,342.22,219.77Z" style="fill:#263238"></path><path d="M358.59,286.63s.23-.08.65-.26a5.61,5.61,0,0,0,1.69-1,3.73,3.73,0,0,0,.88-2.88c0-1.23-.17-2.65-.3-4.21a123.62,123.62,0,0,0-4.47-24,89.48,89.48,0,0,0-4.81-12.56,78.08,78.08,0,0,0-5.42-9.56,71.46,71.46,0,0,0-4.44-5.94c-.54-.68-1-1.19-1.3-1.54a5.11,5.11,0,0,1-.43-.56,4.19,4.19,0,0,1,.51.49c.32.33.8.81,1.38,1.48a58,58,0,0,1,4.58,5.87,73.45,73.45,0,0,1,5.55,9.55,86.27,86.27,0,0,1,4.88,12.62,116.36,116.36,0,0,1,4.34,24.14c.1,1.57.25,3,.22,4.25a7.17,7.17,0,0,1-.24,1.74,2.5,2.5,0,0,1-.8,1.28,5.26,5.26,0,0,1-1.78,1A2.2,2.2,0,0,1,358.59,286.63Z" style="fill:#263238"></path><path d="M191.21,332.93l-16.67,26.69L141.23,339c2.16-3.06,23.34,1.2,23.34,1.2l10-17.54Z" style="fill:#A3E635"></path><g style="opacity:0.6000000000000001"><path d="M175.76,345.16a1.59,1.59,0,0,1,0,2.13,1.54,1.54,0,0,1-2.11,0,1.68,1.68,0,0,1,0-2.26,1.6,1.6,0,0,1,2.2.24" style="fill:#fff"></path></g><g style="opacity:0.6000000000000001"><path d="M174.54,359.62l1.58-2.76-32.53-18.69s-1.88-.27-2.36.87Z" style="fill:#fff"></path></g><path d="M164.13,339.73c-.09.17.68.75,1.15,1.76s.48,2,.67,2,.53-1.06-.07-2.29S164.19,339.56,164.13,339.73Z" style="fill:#263238"></path><path d="M159.75,339c-.14.14.4.85.52,1.88s-.16,1.85,0,2,.84-.77.65-2S159.85,338.87,159.75,339Z" style="fill:#263238"></path><path d="M155.18,342c.13.12.85-.55,1-1.7s-.41-2-.57-1.88,0,.86-.09,1.8S155,341.86,155.18,342Z" style="fill:#263238"></path><path d="M166.85,336c0,.19.86.43,1.74,1.06s1.42,1.36,1.59,1.27-.16-1.09-1.2-1.82S166.85,335.81,166.85,336Z" style="fill:#263238"></path><path d="M170.09,332.53c-.05.06.53.56,1.67,1a8.71,8.71,0,0,0,2.08.54,7.47,7.47,0,0,0,1.27.08,2.25,2.25,0,0,0,.74-.08.82.82,0,0,0,.61-.82,1,1,0,0,0-.48-.81,2.62,2.62,0,0,0-.68-.3,7,7,0,0,0-3.42-.22,3.23,3.23,0,0,0-1.82.75c0,.09.74-.18,1.89-.29a8.18,8.18,0,0,1,2,.08,7.12,7.12,0,0,1,1.14.3c.41.12.71.31.71.52s0,.11-.15.16a1.78,1.78,0,0,1-.55.06,9.28,9.28,0,0,1-1.19,0,11,11,0,0,1-2-.38A13.55,13.55,0,0,0,170.09,332.53Z" style="fill:#263238"></path><path d="M170.15,332.89c0,.06.73-.32,1.44-1.34a6.36,6.36,0,0,0,1.1-3.24,1.63,1.63,0,0,0-.54-1.5.92.92,0,0,0-1,0,2.74,2.74,0,0,0-.55.51,4.3,4.3,0,0,0-.69,1.12,4.4,4.4,0,0,0-.35,2.17c.11,1.26.67,1.88.72,1.83a14.09,14.09,0,0,1-.25-1.85,4.35,4.35,0,0,1,.44-1.89,3.78,3.78,0,0,1,.62-1c.27-.32.58-.52.69-.41a1.11,1.11,0,0,1,.25.91,6.24,6.24,0,0,1-.15,1.16,6.82,6.82,0,0,1-.7,1.86C170.63,332.31,170.08,332.81,170.15,332.89Z" style="fill:#263238"></path><path d="M323.06,441.82l15.55,28.61L303.11,490c-1.66-3.51,13-20.42,13-20.42l-10.71-17.92Z" style="fill:#A3E635"></path><g style="opacity:0.6000000000000001"><path d="M326.2,462a1.65,1.65,0,0,1,1.91,1.11A1.58,1.58,0,0,1,327,465a1.74,1.74,0,0,1-2-1.18,1.65,1.65,0,0,1,1.34-1.86" style="fill:#fff"></path></g><g style="opacity:0.6000000000000001"><path d="M338.55,470.31l-1.7-2.81-33.28,20s-1.19,1.56-.39,2.57Z" style="fill:#fff"></path></g><path d="M315.4,469.68c.1.17,1-.23,2.17-.14s2,.56,2.13.41-.68-1-2.09-1.1S315.27,469.54,315.4,469.68Z" style="fill:#263238"></path><path d="M312.52,473.26c.05.19,1,.08,2,.48s1.59,1.1,1.75,1-.26-1.14-1.5-1.63S312.43,473.1,312.52,473.26Z" style="fill:#263238"></path><path d="M312.86,478.88c.17-.05-.06-1.05-1-1.75s-2-.64-2-.45.79.41,1.57,1S312.67,479,312.86,478.88Z" style="fill:#263238"></path><path d="M313.41,465.32c.16.12.82-.56,1.84-1s1.95-.59,2-.78-1.07-.42-2.26.16S313.25,465.23,313.41,465.32Z" style="fill:#263238"></path><path d="M311.94,460.64c0,.08.78-.19,1.77-1A9.83,9.83,0,0,0,316,457a2.56,2.56,0,0,0,.3-.72.85.85,0,0,0-.42-1,1.08,1.08,0,0,0-1,0,2.38,2.38,0,0,0-.62.46,6.8,6.8,0,0,0-.89,1,7,7,0,0,0-1.05,2,3.3,3.3,0,0,0-.25,2c.11,0,.21-.75.7-1.84a8,8,0,0,1,1.1-1.76,7.66,7.66,0,0,1,.84-.88c.32-.3.64-.48.83-.37s.09.07.07.22a1.83,1.83,0,0,1-.22.52,11.94,11.94,0,0,1-.65,1.06,11,11,0,0,1-1.36,1.6C312.52,460.13,311.88,460.55,311.94,460.64Z" style="fill:#263238"></path><path d="M312.3,460.77a3.27,3.27,0,0,0-.48-2,6.47,6.47,0,0,0-1.31-1.81,6.74,6.74,0,0,0-1.05-.83,1.68,1.68,0,0,0-1.63-.28,1,1,0,0,0-.47.91,3.06,3.06,0,0,0,.18.75,4.63,4.63,0,0,0,.66,1.2,4.75,4.75,0,0,0,1.77,1.42c1.2.54,2,.35,2,.28a17,17,0,0,1-1.8-.71,4.71,4.71,0,0,1-1.48-1.37,4.08,4.08,0,0,1-.53-1c-.15-.41-.18-.79,0-.83a1.16,1.16,0,0,1,.94.24,6.7,6.7,0,0,1,1,.72A7.36,7.36,0,0,1,311.4,459C312,460,312.19,460.79,312.3,460.77Z" style="fill:#263238"></path><path d="M244.71,444.72l1.47,31.4-39.05,2c0-3.74,19.85-12.28,19.85-12.28l-1.77-20.08Z" style="fill:#A3E635"></path><g style="opacity:0.6000000000000001"><path d="M239,463.55a1.59,1.59,0,0,1,1.19,1.76,1.53,1.53,0,0,1-1.73,1.2,1.68,1.68,0,0,1-1.26-1.87,1.58,1.58,0,0,1,1.94-1.05" style="fill:#fff"></path></g><g style="opacity:0.6000000000000001"><path d="M246.18,476l-.13-3.17-37.48,3.39s-1.69.86-1.42,2.07Z" style="fill:#fff"></path></g><path d="M226.34,465.7c0,.19,1,.23,1.94.79s1.51,1.34,1.68,1.26-.17-1.17-1.35-1.84S226.29,465.53,226.34,465.7Z" style="fill:#263238"></path><path d="M222.33,467.61c0,.19.81.47,1.5,1.24s.92,1.62,1.11,1.6.25-1.11-.62-2.05S222.32,467.43,222.33,467.61Z" style="fill:#263238"></path><path d="M220.26,472.63c.17,0,.39-.93-.16-1.95s-1.45-1.39-1.52-1.23.5.7.94,1.54S220.07,472.62,220.26,472.63Z" style="fill:#263238"></path><path d="M226.44,461.08c.09.17.95-.14,2-.12s1.94.31,2,.14-.75-.8-2-.81S226.34,460.94,226.44,461.08Z" style="fill:#263238"></path><path d="M227.13,456.4a3.62,3.62,0,0,0,2-.11,9.18,9.18,0,0,0,3.11-1.39,3,3,0,0,0,.57-.49.84.84,0,0,0,0-1,1,1,0,0,0-.86-.39,2.51,2.51,0,0,0-.73.13,7.42,7.42,0,0,0-1.19.49,6.64,6.64,0,0,0-1.74,1.27c-.86.89-1.14,1.62-1.07,1.65s.5-.56,1.39-1.3a7.45,7.45,0,0,1,1.69-1.07,7.15,7.15,0,0,1,1.1-.41c.41-.13.76-.15.88,0s.05.09,0,.22a2,2,0,0,1-.42.36,11.16,11.16,0,0,1-1,.64,9.85,9.85,0,0,1-1.85.82A14.86,14.86,0,0,0,227.13,456.4Z" style="fill:#263238"></path><path d="M227.39,456.66a3.14,3.14,0,0,0,.42-1.92,6.44,6.44,0,0,0-.94-3.29,1.63,1.63,0,0,0-1.3-.92,1,1,0,0,0-.79.59,2.68,2.68,0,0,0-.16.73,4.13,4.13,0,0,0,.07,1.32,4.42,4.42,0,0,0,.94,2c.81,1,1.62,1.16,1.63,1.1s-.62-.44-1.26-1.38a4.46,4.46,0,0,1-.71-1.81,3.87,3.87,0,0,1,0-1.13c0-.42.18-.76.33-.72s.54.28.72.6a6.07,6.07,0,0,1,.54,1,7.15,7.15,0,0,1,.48,1.93C227.45,455.91,227.29,456.64,227.39,456.66Z" style="fill:#263238"></path><path d="M230,292.43c-1.09.55-25.05,56.57-27.22,65S218.56,449,218.56,449l31.39-.65-12.33-83.12,15.31-29.81,11.47,58,37.29,65.71,27.36-12-22.93-51-6.26-15s1.88-53.74,2.15-59.7-5.5-26.77-5.5-26.77l-35.94,8.78Z" style="fill:#263238"></path><path d="M207.58,245.11l-.48,15.46a20.17,20.17,0,0,0,10.32,18.23L234,288.1l8.2-10.37-15.31-13-3.71-19.6Z" style="fill:#ffbe9d"></path><path d="M234.68,243s-21.08,4.85-22.94,6.7-44.89,72.74-44.89,72.74L190.3,337.1l38.84-56,22.93-5.43Z" style="fill:#263238"></path><path d="M207.58,192.11a85.21,85.21,0,0,0-3.06,13.71c-.37,3.87,0,39.89,0,39.89l19.22,2-11.42-52Z" style="fill:#455a64"></path><path d="M207.86,207.33s0,.13,0,.39.06.7.1,1.14c.08,1.08.19,2.49.32,4.18.24,3.53.52,8.42.71,13.82s.26,10.3.26,13.84c0,1.7,0,3.11,0,4.19,0,.44,0,.82,0,1.14s0,.4,0,.4,0-.14,0-.4,0-.7,0-1.14c0-1.08,0-2.49,0-4.19,0-3.54-.13-8.43-.32-13.83s-.44-10.28-.65-13.82c-.1-1.69-.18-3.1-.25-4.18l-.06-1.14A3,3,0,0,1,207.86,207.33Z" style="fill:#fafafa"></path><path d="M215.64,229.21l-.43.06c-.27,0-.67.06-1.16.07a19,19,0,0,1-3.82-.33,18.63,18.63,0,0,1-3.68-1.1c-.46-.19-.82-.36-1.06-.48a2.48,2.48,0,0,1-.37-.22s.57.22,1.48.57a23.38,23.38,0,0,0,3.67,1,21.87,21.87,0,0,0,3.78.39C215,229.21,215.63,229.17,215.64,229.21Z" style="fill:#fafafa"></path><path d="M208.68,207.35s-4.16-9.51-4.16-10.64,3.44-9.73,4.94-10.13a52,52,0,0,0,5-1.92l.82,15.61Z" style="fill:#ffbe9d"></path><path d="M216.46,178.26s-3.24,2.76-4.26,5.24,0,5.69,0,5.69l5.25,4.26,1.35-5.86Z" style="fill:#455a64"></path><path d="M239.75,167.73s36.4,12.9,40.59,17.94,13.12,59.82,13.12,59.82L302.22,276,315,302.27s-44.24,19.87-61,15.11S231.08,297,231.08,297l1.68-7.27L210.9,207.85l2.56-21.1Z" style="fill:#455a64"></path><path d="M216.59,194c-.15,0-.73-2.54-1.82-5.58-.29-.72-.46-1.65-.93-1.76s-.58.7-.79,1.13a5.86,5.86,0,0,1-.73,1.58,5.65,5.65,0,0,1,.38-1.7c.08-.27.17-.55.25-.84a1.17,1.17,0,0,1,.32-.5.79.79,0,0,1,.69-.14,1.4,1.4,0,0,1,.88.93c.15.37.29.74.42,1.12A18.77,18.77,0,0,1,216.59,194Z" style="fill:#263238"></path><path d="M280.23,314.53a.6.6,0,0,1-.09-.18c-.08-.17-.15-.34-.23-.53l-.78-2c-.64-1.67-1.5-4-2.39-6.57s-1.65-4.93-2.17-6.64q-.33-1.14-.6-2l-.15-.55a.76.76,0,0,1,0-.2.82.82,0,0,1,.08.18l.19.55q.29.89.66,2c.56,1.7,1.33,4.05,2.22,6.63s1.73,4.9,2.34,6.58c.27.74.5,1.4.72,2l.18.55A.88.88,0,0,1,280.23,314.53Z" style="fill:#fafafa"></path><path d="M301.31,307s-.05-.07-.13-.21-.22-.4-.34-.63c-.29-.54-.69-1.34-1.18-2.34-1-2-2.25-4.76-3.51-7.89s-2.29-6-3-8.12c-.34-1.05-.61-1.91-.78-2.5l-.19-.69a.91.91,0,0,1,0-.24l.09.23.23.67c.24.7.52,1.52.84,2.48.72,2.09,1.76,5,3,8.09s2.52,5.91,3.45,7.91c.44.91.81,1.7,1.12,2.37l.31.64Z" style="fill:#fafafa"></path><path d="M309,291.87l-.39.23-1.14.65c-1,.57-2.46,1.34-4.28,2.26A124.35,124.35,0,0,1,273.1,305.5c-2,.42-3.63.72-4.76.9l-1.3.21-.45.05.45-.1,1.29-.24c1.12-.2,2.74-.52,4.74-1a131.5,131.5,0,0,0,30-10.48c1.83-.9,3.3-1.66,4.31-2.2l1.16-.61Z" style="fill:#fafafa"></path><path d="M257.42,181.26a15.23,15.23,0,0,1-1.4-.61c-.85-.39-2-.9-3.4-1.38s-2.6-.84-3.5-1.09-1.48-.37-1.47-.4a1.27,1.27,0,0,1,.41,0c.26,0,.63.12,1.09.22a31.08,31.08,0,0,1,3.54,1,31.55,31.55,0,0,1,3.4,1.43c.42.21.76.39,1,.53A1.68,1.68,0,0,1,257.42,181.26Z" style="fill:#fafafa"></path><path d="M245,191.83a1.34,1.34,0,0,1,.11-.19c.11-.16.23-.33.35-.52.32-.44.75-1.1,1.26-1.92a38.21,38.21,0,0,0,3.26-6.83,37.72,37.72,0,0,0,1.78-7.36c.13-1,.21-1.74.25-2.29l0-.62a.86.86,0,0,1,0-.22,1.25,1.25,0,0,1,0,.22c0,.2,0,.41,0,.63,0,.54-.07,1.33-.18,2.3a34.17,34.17,0,0,1-5.07,14.24c-.52.82-1,1.47-1.31,1.9l-.38.5C245,191.78,245,191.84,245,191.83Z" style="fill:#fafafa"></path><path d="M273.71,229.2s0,0-.17.11l-.51.3-1.89,1c-1.6.85-3.84,2-6.35,3.16s-4.83,2.17-6.51,2.85l-2,.78-.55.2c-.12.05-.19.07-.19.06s.06,0,.18-.1l.53-.23,2-.85c1.67-.71,4-1.72,6.48-2.89s4.76-2.29,6.38-3.11l1.92-1,.52-.26Z" style="fill:#fafafa"></path><path d="M262.78,212.13a3.58,3.58,0,0,1-.5.41c-.34.26-.83.61-1.46,1a33.24,33.24,0,0,1-5.18,2.76,34.15,34.15,0,0,1-5.59,1.8c-.73.16-1.33.27-1.75.33a3.1,3.1,0,0,1-.65.07l.64-.15c.41-.08,1-.22,1.73-.4a36.58,36.58,0,0,0,10.72-4.54c.63-.39,1.14-.73,1.49-1A3.83,3.83,0,0,1,262.78,212.13Z" style="fill:#fafafa"></path><path d="M272.44,251.87c-.05,0-3.94-8.49-8.67-19s-8.53-19.06-8.48-19.09,3.93,8.49,8.67,19S272.49,251.84,272.44,251.87Z" style="fill:#fafafa"></path><path d="M216.16,180.22l0,.61c.2,4.15,1.44,28.26,3.62,32.93,2.4,5.13,22.33,97.49,22.33,97.49,6.64,5,13.88,8,22.42,6.65L267,271l-29.84-80.08" style="fill:#fafafa"></path><path d="M223,253.1a6.84,6.84,0,0,1-.49-1.34L221.35,248c-.94-3.15-2.2-7.52-3.53-12.36s-2.48-9.24-3.25-12.44c-.39-1.6-.69-2.89-.87-3.8a6.8,6.8,0,0,1-.24-1.41,8.08,8.08,0,0,1,.44,1.37c.26,1,.61,2.24,1,3.75.9,3.27,2.09,7.6,3.4,12.39l3.38,12.4,1,3.77A8.79,8.79,0,0,1,223,253.1Z" style="fill:#263238"></path><path d="M233.73,282.77s-4.18-15.75-9.21-35.21-9.08-35.24-9-35.26,4.18,15.75,9.22,35.21S233.79,282.76,233.73,282.77Z" style="fill:#fafafa"></path><path d="M232.12,265.41a3.06,3.06,0,0,1-.84.3,7.72,7.72,0,0,1-2.15.23,8,8,0,0,1-2.13-.37,3,3,0,0,1-.82-.36,15,15,0,0,0,2.95.52A14.34,14.34,0,0,0,232.12,265.41Z" style="fill:#fafafa"></path><path d="M225.76,236.61a3.34,3.34,0,0,1-.79.55,12.08,12.08,0,0,1-2.11,1,13.52,13.52,0,0,1-2.26.6,3.43,3.43,0,0,1-1,.08c0-.06,1.45-.25,3.15-.88S225.73,236.55,225.76,236.61Z" style="fill:#fafafa"></path><path d="M220.41,216.9a3.09,3.09,0,0,1-.81.54,9.1,9.1,0,0,1-4.53,1.13,2.9,2.9,0,0,1-1-.11,16.72,16.72,0,0,0,3.26-.37A17.83,17.83,0,0,0,220.41,216.9Z" style="fill:#fafafa"></path><path d="M186.48,122.5c3.63-2.34,8.78,0,12.64-1.9,2.34-1.18,3.66-3.69,5.51-5.55a13.24,13.24,0,0,1,11.21-3.63c3.86.76,6.54,2,8.06,5.6,2.57-2.63,8.77-.21,11.57,3s3.44,7.21,3.58,11.48a56.4,56.4,0,0,1-3.59,21.63c-.23.61-.66,1.33-1.31,1.23-.44-.08-.71-.53-.9-.94-1.61-3.48-2.2-7.34-2.92-11.11s-1.64-7.61-3.8-10.79-5.8-5.61-9.63-5.3a12.22,12.22,0,0,0-7.37,3.89c-2,2-3.59,4.39-5.43,6.55a15.63,15.63,0,0,1-6.71,5c-2.7.89-6,.43-7.84-1.71s-1.55-6,1-7.35a5.57,5.57,0,0,1-4-10.17Z" style="fill:#263238"></path><path d="M216.8,183,215,175s-11,.94-13.69-9.59c-1.31-5.09-3.16-15.79-4.72-25.49A20.26,20.26,0,0,1,211.75,117l1-.25c11.15-2,19.12,6.27,20.86,17.48L243,177.13a13.44,13.44,0,0,1-10.16,16h0A13.44,13.44,0,0,1,216.8,183Z" style="fill:#ffbe9d"></path><path d="M215,175a25.32,25.32,0,0,0,12.82-7.28s-1.4,8.4-12.18,10Z" style="fill:#eb996e"></path><path d="M201,147.54c.24.15,1.17-1,2.8-1.37s3,.13,3.14-.11-.21-.42-.82-.67a4.24,4.24,0,0,0-2.58-.15,4,4,0,0,0-2.16,1.33C200.92,147.08,200.84,147.47,201,147.54Z" style="fill:#263238"></path><path d="M216.36,143.39c.23.15,1.17-1,2.79-1.36s3,.12,3.15-.12-.22-.42-.83-.67a4.27,4.27,0,0,0-2.57-.15,4.06,4.06,0,0,0-2.17,1.34C216.33,142.93,216.24,143.33,216.36,143.39Z" style="fill:#263238"></path><path d="M213.18,154.43a11.46,11.46,0,0,0-2.76.17c-.42.06-.83.08-1-.19a2.21,2.21,0,0,1,0-1.3c.15-1.1.3-2.25.46-3.45.6-4.92.93-8.92.73-8.94s-.85,3.94-1.45,8.86c-.14,1.2-.27,2.36-.4,3.46a2.45,2.45,0,0,0,.19,1.68,1.07,1.07,0,0,0,.83.44,2.55,2.55,0,0,0,.72-.08A10.5,10.5,0,0,0,213.18,154.43Z" style="fill:#263238"></path><path d="M218.23,154.39c-.27.05.16,1.81-1,3.43s-3.13,1.89-3.08,2.14.5.24,1.3.06a4.51,4.51,0,0,0,2.6-1.68,4,4,0,0,0,.76-2.85C218.65,154.74,218.35,154.35,218.23,154.39Z" style="fill:#263238"></path><path d="M213.93,133.45c.27.4,1.84-.21,3.8-.44s3.63-.1,3.78-.56c.07-.21-.3-.56-1-.84a6.63,6.63,0,0,0-5.78.76C214.07,132.82,213.81,133.25,213.93,133.45Z" style="fill:#263238"></path><path d="M199,141.7c.38.3,1.4-.36,2.74-.71s2.55-.36,2.71-.81c.07-.21-.2-.54-.78-.76a3.92,3.92,0,0,0-2.38-.06,3.86,3.86,0,0,0-2,1.28C198.92,141.13,198.86,141.55,199,141.7Z" style="fill:#263238"></path><path d="M234.68,142.3c.16-.13,6.74-3.93,8.27,3.35s-6.09,7.33-6.14,7.12S234.68,142.3,234.68,142.3Z" style="fill:#ffbe9d"></path><path d="M238.45,149.54s.14.06.38.12a1.31,1.31,0,0,0,.95-.18,3.23,3.23,0,0,0,.86-3.13,4.22,4.22,0,0,0-.74-1.74,1.51,1.51,0,0,0-1.16-.77.65.65,0,0,0-.67.51c-.06.22,0,.35,0,.38s-.18-.09-.18-.41a.76.76,0,0,1,.19-.51,1,1,0,0,1,.66-.34,1.81,1.81,0,0,1,1.56.85,4.48,4.48,0,0,1,.87,1.94c.26,1.48-.2,3-1.19,3.53a1.38,1.38,0,0,1-1.2.06C238.5,149.71,238.43,149.56,238.45,149.54Z" style="fill:#eb996e"></path><path d="M193.77,138.27a15.72,15.72,0,0,0,12.82-6.37c2-2.81,3.25-6.43,6.23-8.21a8.87,8.87,0,0,1,6.78-.71,17.23,17.23,0,0,1,6.1,3.36c-.73,5.87,2.11,11.53,4.86,16.77a6.91,6.91,0,0,0,1.25,1.46c1.07,1.07,2,2,3.43.48,1.22-1.29.84-2.81.73-4.58a44.77,44.77,0,0,0-3.56-14.14,20.9,20.9,0,0,0-8.06-8.85,19.72,19.72,0,0,0-14.69-1.79,24.24,24.24,0,0,0-12.46,8.22,14.32,14.32,0,0,0-3.19,6.2" style="fill:#263238"></path><path d="M184.06,125.79a1.81,1.81,0,0,0,.22.61,3.05,3.05,0,0,0,1.38,1.24,4.69,4.69,0,0,0,2.92.24,7.56,7.56,0,0,0,1.76-.55A3.91,3.91,0,0,0,192,126a2.66,2.66,0,0,0,.4-2.26,2.31,2.31,0,0,0-2-1.47,2.94,2.94,0,0,0-1.34.15,2.51,2.51,0,0,0-1.1.86,3.42,3.42,0,0,0-.46,2.79,3.92,3.92,0,0,0,1.79,2.38,6,6,0,0,0,3,.84,9.81,9.81,0,0,0,6-2.18,28.34,28.34,0,0,0,4.56-4.53,36.37,36.37,0,0,1,4.08-4.28,11,11,0,0,1,4.67-2.42,10.6,10.6,0,0,1,4.6,0,13.2,13.2,0,0,1,5.86,3.19,15,15,0,0,1,1.29,1.31,4.89,4.89,0,0,0,.44.47l-.09-.14c-.06-.09-.16-.22-.29-.38a15.15,15.15,0,0,0-1.25-1.37,13.1,13.1,0,0,0-5.9-3.33,10.79,10.79,0,0,0-4.72-.1,11.26,11.26,0,0,0-4.82,2.46,34.78,34.78,0,0,0-4.15,4.31,27.94,27.94,0,0,1-4.5,4.46,9.45,9.45,0,0,1-5.78,2.12,5.75,5.75,0,0,1-2.81-.78,3.61,3.61,0,0,1-1.64-2.16,3.07,3.07,0,0,1,.39-2.52,2.25,2.25,0,0,1,2.15-.9,2,2,0,0,1,1.75,1.26,2.33,2.33,0,0,1-.35,2,3.63,3.63,0,0,1-1.52,1.24,7.86,7.86,0,0,1-1.7.56,4.56,4.56,0,0,1-2.82-.17,3,3,0,0,1-1.37-1.15C184.13,126,184.09,125.78,184.06,125.79Z" style="fill:#455a64"></path><path d="M238.28,126a12.53,12.53,0,0,1-2.07,1.11,6.29,6.29,0,0,1-2.48.34,10.55,10.55,0,0,1-3-.64,8.68,8.68,0,0,1-4.27-3.51,19.56,19.56,0,0,1-1-2.12,2,2,0,0,0,.12.63,7.57,7.57,0,0,0,.68,1.62,8.5,8.5,0,0,0,4.37,3.73,10.25,10.25,0,0,0,3.15.63,6.29,6.29,0,0,0,2.58-.43,6.1,6.1,0,0,0,1.52-.9A2,2,0,0,0,238.28,126Z" style="fill:#455a64"></path><path d="M239.24,131.26c0-.07-.82.33-2.2.58a10.42,10.42,0,0,1-5.38-.41,10.52,10.52,0,0,1-4.42-3.1c-.9-1.07-1.27-1.88-1.33-1.85a1.87,1.87,0,0,0,.22.58,9.28,9.28,0,0,0,.91,1.44,9.84,9.84,0,0,0,10.05,3.6,8.73,8.73,0,0,0,1.61-.54A2,2,0,0,0,239.24,131.26Z" style="fill:#455a64"></path><path d="M223.21,146.53a.2.2,0,0,0,.18-.21.19.19,0,0,0-.2-.19.19.19,0,0,0-.17.21A.18.18,0,0,0,223.21,146.53Z" style="fill:#eb996e"></path><path d="M219.94,146.59a.21.21,0,0,0,.17-.24c0-.13-.09-.23-.19-.22a.21.21,0,0,0-.18.23A.22.22,0,0,0,219.94,146.59Z" style="fill:#eb996e"></path><path d="M217.83,147.05c.11,0,.17-.16.15-.32s-.11-.29-.22-.28-.16.15-.14.32S217.73,147.06,217.83,147.05Z" style="fill:#eb996e"></path><path d="M222.16,148.85c.1,0,.17-.09.15-.16s-.11-.09-.2-.07-.17.1-.15.16S222.06,148.88,222.16,148.85Z" style="fill:#eb996e"></path><path d="M219.15,148.89a.19.19,0,0,0,.15-.24.18.18,0,0,0-.21-.17.19.19,0,0,0-.15.23A.2.2,0,0,0,219.15,148.89Z" style="fill:#eb996e"></path><path d="M203.91,150.75a.22.22,0,0,0,.18-.22.19.19,0,0,0-.2-.2.19.19,0,0,0-.17.22A.2.2,0,0,0,203.91,150.75Z" style="fill:#eb996e"></path><path d="M201.75,151.07a.22.22,0,0,0,.15-.26c0-.12-.11-.22-.22-.2s-.16.13-.14.26A.21.21,0,0,0,201.75,151.07Z" style="fill:#eb996e"></path><path d="M205.79,150.34a.18.18,0,0,0,.18-.17.17.17,0,0,0-.19-.15.16.16,0,1,0,0,.32Z" style="fill:#eb996e"></path><path d="M204.74,152.84a.22.22,0,1,0-.14-.24A.2.2,0,0,0,204.74,152.84Z" style="fill:#eb996e"></path><path d="M202.85,152.92a.16.16,0,1,0-.15-.27.16.16,0,1,0,.15.27Z" style="fill:#eb996e"></path><path d="M239.24,141a7.17,7.17,0,0,1-.15-1.35c-.05-1-.12-2.22-.2-3.71a65.26,65.26,0,0,0-1.62-12.06,9.09,9.09,0,0,0-3.65-5.29,12.36,12.36,0,0,0-4.88-2.21,6.53,6.53,0,0,0-3.58.19c-.82.28-1.24.53-1.26.49s.09-.09.28-.22a6.76,6.76,0,0,1,.91-.46,6.53,6.53,0,0,1,3.72-.37,12.47,12.47,0,0,1,5.1,2.2,11.42,11.42,0,0,1,2.37,2.3,8.29,8.29,0,0,1,1.49,3.24,57,57,0,0,1,1.15,6.67c.22,2.07.29,3.94.33,5.51s.05,2.83.05,3.71A6.9,6.9,0,0,1,239.24,141Z" style="fill:#455a64"></path><path d="M237.87,192.11l-3.19-5.4s7.45-10.41,6.92-14.42-1.37-7.89-1.37-7.89l1.77,1.7,2.49,3.74s3.59,5.64,3.45,9.87S237.87,192.11,237.87,192.11Z" style="fill:#455a64"></path><path d="M242.58,166.39a5.42,5.42,0,0,1,.53.74,9.12,9.12,0,0,1,1,2.25,14.23,14.23,0,0,1-.08,8.09,29.36,29.36,0,0,1-3.56,7.32c-.57.88-1,1.58-1.37,2.06l-.39.54a.86.86,0,0,1-.15.19s0-.08.11-.21l.36-.57,1.31-2.09a31,31,0,0,0,3.49-7.3,14.41,14.41,0,0,0,.14-8,9.8,9.8,0,0,0-1-2.25C242.75,166.67,242.56,166.4,242.58,166.39Z" style="fill:#fafafa"></path><path d="M244.56,186.45s-.11-.5-.34-1.28a13.42,13.42,0,0,0-1.23-2.91,13.57,13.57,0,0,0-1.9-2.54c-.56-.58-1-.91-.93-.93s.12.05.3.19.44.36.74.64a11.43,11.43,0,0,1,3.16,5.51,6.6,6.6,0,0,1,.18,1C244.57,186.32,244.58,186.45,244.56,186.45Z" style="fill:#fafafa"></path><path d="M246.61,176.3s-.12-.47-.37-1.21a11,11,0,0,0-1.35-2.72,11.24,11.24,0,0,0-2-2.24c-.6-.5-1-.76-1-.79a1.05,1.05,0,0,1,.31.15,6.12,6.12,0,0,1,.78.52,9.74,9.74,0,0,1,3.45,5,6.88,6.88,0,0,1,.21.92C246.62,176.18,246.63,176.3,246.61,176.3Z" style="fill:#fafafa"></path><path d="M234.67,186.42a1,1,0,0,1,.73-.22,3.51,3.51,0,0,1,1.94.77,35,35,0,0,1,5.38,4.65l-.4,0a29.78,29.78,0,0,0,1.74-3,25.2,25.2,0,0,0,2.56-8.94c.24-2.39.18-3.89.28-3.89a4.71,4.71,0,0,1,.11,1.05,24.13,24.13,0,0,1-2.49,12,29.69,29.69,0,0,1-1.78,3l-.17.27-.22-.24a42.45,42.45,0,0,0-5.19-4.73,3.72,3.72,0,0,0-1.77-.86A4.52,4.52,0,0,0,234.67,186.42Z" style="fill:#263238"></path><path d="M275.44,362.55l8.75,30-37.3,11.08c-.84-3.62,16.33-16.51,16.33-16.51l-6.4-19Z" style="fill:#A3E635"></path><g style="opacity:0.6000000000000001"><path d="M274.28,382.1a1.6,1.6,0,0,1,1.57,1.43,1.54,1.54,0,0,1-1.4,1.57,1.68,1.68,0,0,1-1.66-1.52c0-.78.87-1.63,1.64-1.47" style="fill:#fff"></path></g><g style="opacity:0.6000000000000001"><path d="M284.16,392.46l-1-3-35.32,12s-1.43,1.22-.89,2.34Z" style="fill:#fff"></path></g><path d="M262.56,387.14c.06.18,1,0,2.06.31s1.78.94,1.93.82-.44-1.09-1.74-1.46S262.47,387,262.56,387.14Z" style="fill:#263238"></path><path d="M259.13,389.92c0,.19.89.26,1.74.85s1.26,1.35,1.44,1.28,0-1.12-1.08-1.83S259.08,389.74,259.13,389.92Z" style="fill:#263238"></path><path d="M258.3,395.26c.17,0,.16-1-.61-1.85s-1.73-1-1.76-.83.65.55,1.27,1.26S258.11,395.3,258.3,395.26Z" style="fill:#263238"></path><path d="M261.58,382.64c.13.14.89-.35,1.94-.59s2-.15,2-.33-.92-.61-2.15-.31S261.45,382.53,261.58,382.64Z" style="fill:#263238"></path><path d="M261.15,378a3.56,3.56,0,0,0,1.87-.56,9.24,9.24,0,0,0,1.78-1.18,10.75,10.75,0,0,0,.9-.89,2.33,2.33,0,0,0,.43-.61.81.81,0,0,0-.2-1,1,1,0,0,0-.92-.18,2.32,2.32,0,0,0-.67.3,7,7,0,0,0-1,.75,6.68,6.68,0,0,0-1.38,1.64c-.63,1.06-.73,1.83-.65,1.84s.35-.66,1-1.58a8,8,0,0,1,1.39-1.43,6.17,6.17,0,0,1,1-.65c.36-.23.7-.33.85-.18s.07.08,0,.22a1.78,1.78,0,0,1-.32.44,9.68,9.68,0,0,1-.82.86,10.43,10.43,0,0,1-1.6,1.23A12.93,12.93,0,0,0,261.15,378Z" style="fill:#263238"></path><path d="M261.47,378.14a3.14,3.14,0,0,0,0-1.95,6.61,6.61,0,0,0-.87-2,5.67,5.67,0,0,0-.81-1,1.62,1.62,0,0,0-1.47-.59.9.9,0,0,0-.63.75,2.57,2.57,0,0,0,0,.74,4.57,4.57,0,0,0,1.75,3c1,.75,1.84.74,1.84.67s-.71-.27-1.54-1a4.6,4.6,0,0,1-1.12-1.58,4,4,0,0,1-.28-1.09c-.06-.42,0-.78.15-.79a1.16,1.16,0,0,1,.84.42,6.83,6.83,0,0,1,.76.88,6.91,6.91,0,0,1,.92,1.75C261.35,377.4,261.36,378.14,261.47,378.14Z" style="fill:#263238"></path><path d="M289.33,237.09,237.1,278.3A17.6,17.6,0,0,0,231,296.76l21,75.71,28.68-6.71-15.14-63.43L308,270.08Z" style="fill:#263238"></path><path d="M308.7,232.3l12.06,20.78c5.42,6.47,2.45,15-4.07,18.27L286,287.5l1.38-3.94a42.5,42.5,0,0,1,2.92-6.58,47.29,47.29,0,0,1,3.64-6.25l8.69-10L291.77,245Z" style="fill:#ffbe9d"></path><path d="M313.7,260.92A21.31,21.31,0,0,0,308,259.7a14.74,14.74,0,0,0-4.11.47c-1,.26-1.57.65-1.62.59s.45-.58,1.51-.94a12.15,12.15,0,0,1,8.43.23A4.26,4.26,0,0,1,313.7,260.92Z" style="fill:#eb996e"></path><path d="M259.06,295.94a2.27,2.27,0,0,1,1.52-.22,5.34,5.34,0,0,1,3.3,1.73,7.57,7.57,0,0,1,1.69,3.3,3.14,3.14,0,0,1,.15,1.52,6.46,6.46,0,0,1-.51-1.42,8.46,8.46,0,0,0-1.72-3.05,5.56,5.56,0,0,0-3-1.71C259.65,295.91,259.07,296,259.06,295.94Z" style="fill:#455a64"></path><path d="M286.33,269.54c0-.05.53.16,1.2.72a7.43,7.43,0,0,1,2,2.75,7.53,7.53,0,0,1,.61,3.35,2.82,2.82,0,0,1-.31,1.37,12.62,12.62,0,0,0-.78-4.51A12.76,12.76,0,0,0,286.33,269.54Z" style="fill:#455a64"></path><path d="M289.73,265.62c0-.06.57.06,1.12.72a6,6,0,0,1,1.15,3,7.24,7.24,0,0,1-.5,4.43,26.66,26.66,0,0,0,0-4.36,7.12,7.12,0,0,0-.92-2.85C290.14,265.92,289.69,265.69,289.73,265.62Z" style="fill:#455a64"></path><path d="M282.49,190.92c-10.15-7.61-19.9,2.82-21.06,12.54-.68,5.74,6,16,9.18,20.7,4.71,7,17.52,23.59,17.52,23.59l25-18.79Z" style="fill:#455a64"></path><path d="M290.26,200.88a1.63,1.63,0,0,1-.21.21l-.61.57c-.53.49-1.31,1.19-2.29,2-1.95,1.69-4.71,4-7.86,6.36s-6.1,4.41-8.27,5.82c-1.08.71-2,1.27-2.58,1.65l-.71.43a1.32,1.32,0,0,1-.26.14,1.29,1.29,0,0,1,.23-.17l.7-.47,2.54-1.7c2.15-1.44,5.08-3.49,8.23-5.87s5.91-4.64,7.89-6.31l2.33-2,.64-.54C290.17,200.94,290.25,200.87,290.26,200.88Z" style="fill:#fafafa"></path><path d="M303.82,218.3l-.22.21-.66.57c-.58.49-1.42,1.19-2.47,2-2.1,1.71-5.06,4-8.4,6.44s-6.45,4.52-8.72,6c-1.14.73-2.07,1.32-2.71,1.71l-.75.46a1,1,0,0,1-.27.14,2,2,0,0,1,.25-.18l.72-.48,2.68-1.78c2.25-1.5,5.34-3.61,8.68-6s6.3-4.71,8.43-6.39l2.51-2,.68-.54A1.29,1.29,0,0,1,303.82,218.3Z" style="fill:#fafafa"></path><path d="M296.41,240.76a4.57,4.57,0,0,1-.31-.36l-.85-1.06-3.1-3.92-10.15-13-10.1-13-3-4c-.33-.43-.6-.78-.82-1.08s-.27-.38-.27-.38a3.89,3.89,0,0,1,.3.36c.24.28.52.63.85,1l3.1,3.92,10.15,13,10.1,13,3,4,.82,1.08C296.32,240.62,296.41,240.76,296.41,240.76Z" style="fill:#fafafa"></path><path d="M310.79,230.55c-.05,0-6.6-8.41-14.63-18.86s-14.5-18.95-14.45-19,6.59,8.41,14.62,18.86S310.83,230.52,310.79,230.55Z" style="fill:#fafafa"></path><path d="M265.48,301.79a1.61,1.61,0,0,1,.1.3c.06.23.13.52.24.91.2.82.5,2,.88,3.52.75,3.1,1.85,7.59,3.23,13.23,2.73,11.34,6.57,27.32,11.06,45.95l.06.24-.25.06-28.67,6.72-.24.06-.07-.24-.58-2c-3.81-12.89-6.74-25.35-10-36.51-1.73-5.55-3.05-10.94-4.43-15.92s-2.59-9.66-3.68-13.91c-.54-2.14-1.17-4.13-1.71-6a28.93,28.93,0,0,1-1.06-5.52,16.7,16.7,0,0,1,1.76-8.75,17,17,0,0,1,3.34-4.58A12,12,0,0,1,237,278.1a3.91,3.91,0,0,1-.38.34c-.25.21-.61.55-1.08,1a17.34,17.34,0,0,0-3.23,4.59,16.6,16.6,0,0,0-1.65,8.64,28.73,28.73,0,0,0,1.09,5.45c.55,1.9,1.19,3.9,1.74,6,1.12,4.27,2.21,9,3.75,13.89s2.73,10.35,4.47,15.9c3.31,11.17,6.26,23.63,10.06,36.5l.58,1.95-.3-.18,28.67-6.69-.18.3c-4.41-18.65-8.2-34.65-10.88-46-1.32-5.66-2.37-10.15-3.09-13.26-.35-1.53-.62-2.72-.81-3.54l-.19-.92A2.28,2.28,0,0,1,265.48,301.79Z" style="fill:#455a64"></path><path d="M262.44,210.2a10.17,10.17,0,0,1,.82,1.29l2.12,3.58c1.8,3,4.34,7.15,7.31,11.61s5.83,8.38,7.94,11.19l2.5,3.33a8,8,0,0,1,.87,1.25,8.22,8.22,0,0,1-1-1.12c-.64-.75-1.54-1.85-2.63-3.23-2.19-2.76-5.09-6.67-8.08-11.13s-5.48-8.64-7.2-11.71c-.86-1.54-1.53-2.79-2-3.67A7.88,7.88,0,0,1,262.44,210.2Z" style="fill:#263238"></path><path d="M213.7,185.49a2.71,2.71,0,0,1-.07-.86,6.56,6.56,0,0,1,.4-2,6.81,6.81,0,0,1,1-1.83,2.5,2.5,0,0,1,.61-.61,11.45,11.45,0,0,0-1.43,2.51A11.07,11.07,0,0,0,213.7,185.49Z" style="fill:#fafafa"></path><path d="M283.4,156.59s-10.65,10.49-23,21.78c-9.83,9-19.08,16.57-19.63,16.88-1.23.69-26.27,0-26.27,0l-4.1-.86s-4,13.07,1,16.06,33.18,8.74,39.84,5.29,34.67-27.12,35.36-27.12l9-7.59a19.11,19.11,0,0,0,6.6-11.74h0C300.69,149,283.4,156.59,283.4,156.59Z" style="fill:#A3E635"></path><path d="M282.93,191.52s.07-.08.22-.21l.67-.58,2.63-2.16a77,77,0,0,0,9.25-8.39c.88-1,1.75-2.06,2.6-3.22a17,17,0,0,0,2.23-3.83,14.91,14.91,0,0,0,1.17-4.59,12.17,12.17,0,0,0-.64-4.93,11.84,11.84,0,0,0-7.28-7.41,12.67,12.67,0,0,0-11.06,1.3,41.35,41.35,0,0,0-4.35,4l-4.14,4.08c-2.72,2.66-5.37,5.21-7.92,7.61-5.09,4.8-9.77,9-13.77,12.49s-7.32,6.18-9.64,8c-1.16.93-2.08,1.62-2.69,2.09l-.72.53c-.16.11-.24.17-.25.16l.22-.2.68-.57,2.63-2.17c2.29-1.88,5.56-4.63,9.53-8.13s8.62-7.74,13.68-12.56c2.54-2.41,5.18-5,7.9-7.62,1.35-1.34,2.73-2.7,4.12-4.09a41.16,41.16,0,0,1,4.42-4.08A13.1,13.1,0,0,1,294,155.72a12.36,12.36,0,0,1,7.57,7.73,12.8,12.8,0,0,1,.64,5.13,15.42,15.42,0,0,1-1.23,4.71,17.31,17.31,0,0,1-2.31,3.91,40.23,40.23,0,0,1-2.64,3.22,71.46,71.46,0,0,1-9.4,8.3l-2.7,2.09-.7.54A2.48,2.48,0,0,1,282.93,191.52Z" style="fill:#263238"></path><path d="M242.23,210.92a5.11,5.11,0,0,1-1.77-1.63,10.64,10.64,0,0,1-2.12-5.39,13.11,13.11,0,0,1,.71-5.75,7.06,7.06,0,0,1,1.06-2.15c.08,0-.3.87-.7,2.27a14.62,14.62,0,0,0-.56,5.58,11.65,11.65,0,0,0,1.9,5.23C241.57,210.27,242.29,210.85,242.23,210.92Z" style="fill:#263238"></path><path d="M266.32,204.74a3.21,3.21,0,0,1-.86-.35,23.22,23.22,0,0,1-2.21-1.19,32.45,32.45,0,0,1-11.43-11.88,20.79,20.79,0,0,1-1.12-2.26,3.29,3.29,0,0,1-.31-.88c.08,0,.65,1.15,1.74,2.95a38.72,38.72,0,0,0,5,6.5,38.22,38.22,0,0,0,6.31,5.25C265.2,204.05,266.36,204.66,266.32,204.74Z" style="fill:#fafafa"></path><path d="M287,187.71a31.14,31.14,0,0,1-2.56-2.61c-1.56-1.64-3.72-3.89-6.17-6.31s-4.75-4.53-6.42-6.06a27.59,27.59,0,0,1-2.65-2.52,3.44,3.44,0,0,1,.81.56c.51.38,1.22,1,2.08,1.69,1.74,1.45,4.07,3.54,6.54,6s4.59,4.72,6.08,6.43c.74.85,1.33,1.56,1.72,2.05A3.34,3.34,0,0,1,287,187.71Z" style="fill:#fafafa"></path><path d="M223.8,215.06s-.15-.24-.34-.7a13.76,13.76,0,0,1-.61-2,20.25,20.25,0,0,1-.37-7,20.48,20.48,0,0,1,2-6.7,14.51,14.51,0,0,1,1.08-1.82c.29-.41.47-.63.5-.61s-.52,1-1.25,2.59a23.3,23.3,0,0,0-1.82,6.6,23,23,0,0,0,.21,6.85C223.52,214,223.88,215,223.8,215.06Z" style="fill:#fafafa"></path></g><g id="freepik--Plants--inject-361"><path d="M145.46,434.42a8.08,8.08,0,0,1,4.17,4.72,14.29,14.29,0,0,1,.55,6.4c-.47,4.15-2.83,8.34-5.37,11.66-3.5-3.05-4.3-8.37-4.54-11.1-.38-4.31,1.56-12.32,5.19-11.68" style="fill:#A3E635"></path><path d="M148.87,464.05a6.86,6.86,0,0,1,2.22-6.52,9.07,9.07,0,0,1,6.72-2.1,3.85,3.85,0,0,1,3,1.32,3,3,0,0,1,0,3,6,6,0,0,1-2.2,2.17c-3,1.9-6.31,3.18-9.74,2.15" style="fill:#A3E635"></path><path d="M144.39,476.78a5.84,5.84,0,0,1,.12-.85c.11-.6.26-1.37.43-2.3a23.84,23.84,0,0,1,2.38-7.37,14.75,14.75,0,0,1,5.28-5.62,10.24,10.24,0,0,1,2.16-.95c.26-.09.48-.12.62-.16a.61.61,0,0,1,.22,0,16,16,0,0,0-2.89,1.33,15.13,15.13,0,0,0-5.13,5.58,25.79,25.79,0,0,0-2.43,7.26c-.21,1-.39,1.75-.52,2.29A4.06,4.06,0,0,1,144.39,476.78Z" style="fill:#263238"></path><path d="M144.52,440.66a1.21,1.21,0,0,1,0,.37c0,.27,0,.63.07,1.07.05.93.1,2.27.16,3.94.1,3.32.19,7.92.17,13s-.15,9.68-.29,13c-.06,1.67-.13,3-.19,3.94,0,.44,0,.79-.07,1.07a1.61,1.61,0,0,1,0,.37,2.12,2.12,0,0,1,0-.37c0-.28,0-.64,0-1.07,0-1,.06-2.31.1-3.94.08-3.33.17-7.92.19-13s0-9.67-.08-13c0-1.63,0-3-.06-3.94V441A2.53,2.53,0,0,1,144.52,440.66Z" style="fill:#263238"></path><path d="M142.82,466.58a16.06,16.06,0,0,0-8.76-11.76c-1.17-.56-2.7-.93-3.66-.06s-.74,2.44-.27,3.64a13.7,13.7,0,0,0,12.61,8.52" style="fill:#A3E635"></path><path d="M134.62,458.76a3.47,3.47,0,0,1,.75.32,7.2,7.2,0,0,1,.83.45,10.66,10.66,0,0,1,1.07.67,18.06,18.06,0,0,1,2.52,2.1,16.46,16.46,0,0,1,4.1,6.85c.16.59.32,1.16.41,1.7a13.12,13.12,0,0,1,.21,1.52c.06.46,0,.89.06,1.26a8.94,8.94,0,0,1,0,.95,4.34,4.34,0,0,1-.09.8c-.07,0,.05-1.15-.16-3a13.09,13.09,0,0,0-.24-1.49,15.25,15.25,0,0,0-.43-1.67,18,18,0,0,0-1.62-3.61,18.86,18.86,0,0,0-2.41-3.13,16.87,16.87,0,0,0-1.26-1.18,14.66,14.66,0,0,0-1.18-.94C135.65,459.3,134.59,458.82,134.62,458.76Z" style="fill:#263238"></path><path d="M409.05,461.06c.58-2.24-.89-4.49-2.54-6.12s-3.61-3.08-4.47-5.23c-1.39-3.49.48-8-1.9-10.91-1.39-1.71-3.89-2.28-5.13-4.11a9.25,9.25,0,0,1-1.11-3.27A33.25,33.25,0,0,0,385.65,416a28.7,28.7,0,0,0,3.23,14.88c1,1.83,2.14,3.61,2.46,5.65.52,3.32-1.33,6.73-.52,10,.93,3.73,5.11,6.22,5.31,10.05.17,3.23-2.65,6.08-2.44,9.31a8.74,8.74,0,0,0,1.44,3.84c2.5,4.17,6.18,7,11.75,6.94l6.83.24Z" style="fill:#A3E635"></path><g style="opacity:0.30000000000000004"><path d="M409.05,461.06c.58-2.24-.89-4.49-2.54-6.12s-3.61-3.08-4.47-5.23c-1.39-3.49.48-8-1.9-10.91-1.39-1.71-3.89-2.28-5.13-4.11a9.25,9.25,0,0,1-1.11-3.27A33.25,33.25,0,0,0,385.65,416a28.7,28.7,0,0,0,3.23,14.88c1,1.83,2.14,3.61,2.46,5.65.52,3.32-1.33,6.73-.52,10,.93,3.73,5.11,6.22,5.31,10.05.17,3.23-2.65,6.08-2.44,9.31a8.74,8.74,0,0,0,1.44,3.84c2.5,4.17,6.18,7,11.75,6.94l6.83.24Z"></path></g><path d="M415.1,477.05a5.5,5.5,0,0,0,1.88,0,11.9,11.9,0,0,0,2.21-.56,9.42,9.42,0,0,0,2.75-1.5,3.86,3.86,0,0,0,1.12-1.51,6.76,6.76,0,0,0,.32-2,21.1,21.1,0,0,1,.16-2.2,6,6,0,0,1,.84-2.2c.8-1.41,2.14-2.75,2.57-4.67a15.59,15.59,0,0,0-.18-6,12.58,12.58,0,0,1,.16-6.41c.73-2.14,2.23-4.07,3-6.48s.4-5,.56-7.62a10,10,0,0,1,.89-3.79c.55-1.21,1.32-2.35,1.92-3.62,1.21-2.58,1.42-5.49,1.75-8.35.17-1.44.33-2.89.49-4.36a22.21,22.21,0,0,1,.76-4.37,37.24,37.24,0,0,1,1.64-4.23,15.49,15.49,0,0,0,.79-2.2c.13-.81.17-1.56.22-2.35a27.77,27.77,0,0,0-.18-4.73c-.19-1.58-.47-3.14-.64-4.72l0-.27,0-.31-.28.14a10.5,10.5,0,0,0-3.67,3.1,16.65,16.65,0,0,0-2.26,4.16,51.78,51.78,0,0,0-2.13,8.94,24.32,24.32,0,0,1-2.8,8.26c-.75,1.22-1.66,2.33-2.45,3.51a9.58,9.58,0,0,0-1.69,3.9c-.41,2.88,1.18,5.42.85,8a8.87,8.87,0,0,1-1.24,3.54c-.62,1.09-1.35,2.11-2,3.12a20.05,20.05,0,0,0-1.84,3.15,10.21,10.21,0,0,0-.84,3.43c-.16,2.3.16,4.48,0,6.55a15.12,15.12,0,0,1-1.69,5.61c-.83,1.68-1.74,3.2-2.51,4.67a23.83,23.83,0,0,0-1,2.18,10.6,10.6,0,0,0-.6,2.16,13.79,13.79,0,0,0-.05,3.89,9.86,9.86,0,0,0,1.95,5,3.68,3.68,0,0,0,.56.6,2.66,2.66,0,0,0,.44.38l.4.28a8.81,8.81,0,0,1-1.33-1.31,9.91,9.91,0,0,1-1.85-4.94A13.18,13.18,0,0,1,412,467a10,10,0,0,1,.6-2.11,23.25,23.25,0,0,1,1-2.14c.78-1.46,1.71-3,2.55-4.67a15.2,15.2,0,0,0,1.74-5.71c.18-2.1-.13-4.3,0-6.55a9.65,9.65,0,0,1,.82-3.3,20.32,20.32,0,0,1,1.82-3.09c.69-1,1.42-2,2.06-3.14a9.05,9.05,0,0,0,1.3-3.69c.33-2.72-1.25-5.28-.84-8a9.34,9.34,0,0,1,1.64-3.73c.78-1.16,1.69-2.27,2.46-3.52a24.56,24.56,0,0,0,2.87-8.39,50.87,50.87,0,0,1,2.12-8.87,16.27,16.27,0,0,1,2.19-4.06,10.15,10.15,0,0,1,3.53-3l-.32-.17,0,.27c.17,1.6.46,3.16.64,4.72a27,27,0,0,1,.18,4.66,20.57,20.57,0,0,1-.21,2.27,13.22,13.22,0,0,1-.76,2.13,39,39,0,0,0-1.65,4.28,22.09,22.09,0,0,0-.77,4.44c-.16,1.47-.32,2.92-.48,4.36-.33,2.87-.54,5.74-1.71,8.22-.58,1.24-1.34,2.38-1.91,3.63a10.54,10.54,0,0,0-.92,3.93c-.14,2.64.2,5.21-.51,7.55s-2.2,4.26-2.95,6.46a12.92,12.92,0,0,0-.15,6.58,15.25,15.25,0,0,1,.22,5.87c-.39,1.84-1.69,3.16-2.51,4.62a6.21,6.21,0,0,0-.85,2.28,19.65,19.65,0,0,0-.14,2.24,6.9,6.9,0,0,1-.3,2,3.59,3.59,0,0,1-1.06,1.44,9.61,9.61,0,0,1-2.67,1.51,11.92,11.92,0,0,1-2.19.59,8.64,8.64,0,0,1-1.39.13Z" style="fill:#263238"></path><path d="M436.67,396.6a.64.64,0,0,0-.06.21c0,.16-.09.36-.16.61-.13.54-.29,1.35-.55,2.37s-.88,2.15-1.41,3.56a49.76,49.76,0,0,0-1.63,4.85c-.52,1.82-1,3.84-1.46,6a25.53,25.53,0,0,1-2.19,6.67c-.56,1.1-1.19,2.23-1.69,3.46a16,16,0,0,0-1,3.91,81.11,81.11,0,0,1-1.47,8.26c-1.37,5.6-2.68,10.93-3.87,15.78s-2.31,9.2-3.23,12.87-1.63,6.6-2.15,8.69c-.23,1-.42,1.79-.56,2.36-.05.26-.1.46-.13.62a.61.61,0,0,0,0,.22,2,2,0,0,0,.07-.21l.18-.6c.15-.57.37-1.36.64-2.35.55-2.08,1.32-5,2.28-8.65l3.33-12.85c1.2-4.85,2.51-10.18,3.89-15.78a77.77,77.77,0,0,0,1.47-8.29,15.92,15.92,0,0,1,1-3.83c.48-1.19,1.1-2.31,1.66-3.43a25.56,25.56,0,0,0,2.18-6.78c.47-2.17.91-4.18,1.41-6s1-3.44,1.55-4.84,1.11-2.56,1.36-3.61.36-1.84.47-2.39c0-.25.08-.46.11-.62A.73.73,0,0,0,436.67,396.6Z" style="fill:#263238"></path><path d="M416.3,477.07c4.46-2.65,5.74-10.7,3.88-15.54s-5.12-9.27-5.62-14.44c-.38-4,.92-8,0-11.92-1.25-5.24-6.36-9.29-6.3-14.68,0-3,1.75-5.86,1.61-8.88-.16-3.7-3-6.63-4.76-9.89-2.7-5-2.87-10.89-3.79-16.49s-3.06-11.59-8-14.34c-.73,4.75-2,8-1.59,14.44.14,2.31,2.83,6.74,3.19,11.8.22,3,.37,6.06.56,9.09a29.05,29.05,0,0,0,1.43,8.71c.81,2.11,2.11,4,2.71,6.22,1.13,4.1-.36,8.55.56,12.71.77,3.52,3.21,6.55,3.71,10.13.7,5-2.55,10.24-.89,15,.83,2.38,2.78,4.29,3.34,6.74.43,1.91,0,3.92.35,5.83.63,3.09,6.5,5.48,9.64,5.29" style="fill:#A3E635"></path><path d="M394.52,375.61s0,.09,0,.27.06.45.1.78c.1.68.22,1.69.45,3s.93,2.79,1.47,4.57,1.13,3.81,1.63,6.1.94,4.83,1.38,7.55a31.68,31.68,0,0,0,2.29,8.54c.62,1.42,1.33,2.85,1.85,4.37a19.43,19.43,0,0,1,.94,4.82A97.38,97.38,0,0,0,406,426c1.37,7,2.67,13.74,3.85,19.84s2.38,11.56,3.32,16.17,1.74,8.29,2.28,10.89c.27,1.26.49,2.25.64,2.95.07.32.13.57.18.77a1.23,1.23,0,0,0,.07.26.93.93,0,0,0,0-.27c0-.2-.08-.45-.13-.77l-.56-3-2.14-10.91c-.92-4.62-2-10.1-3.23-16.19s-2.46-12.8-3.82-19.84a101,101,0,0,1-1.31-10.35,19.6,19.6,0,0,0-1-4.92c-.54-1.55-1.26-3-1.88-4.4a31.14,31.14,0,0,1-2.3-8.43c-.46-2.72-.91-5.26-1.44-7.55s-1.11-4.35-1.7-6.12-1.26-3.25-1.53-4.52-.4-2.3-.53-3c-.06-.32-.11-.57-.14-.77A1.23,1.23,0,0,0,394.52,375.61Z" style="fill:#263238"></path></g></svg>